<?xml version="1.0" standalone="no"?>
<!DOCTYPE svg PUBLIC "-//W3C//DTD SVG 1.1//EN" "http://www.w3.org/Graphics/SVG/1.1/DTD/svg11.dtd" >
<svg xmlns="http://www.w3.org/2000/svg" xmlns:xlink="http://www.w3.org/1999/xlink" version="1.1">
<metadata></metadata>
<defs>
<font id="yantramanavlight" horiz-adv-x="1022" >
<font-face units-per-em="2048" ascent="1536" descent="-512" />
<missing-glyph horiz-adv-x="509" />
<glyph horiz-adv-x="0" />
<glyph unicode="&#xd;" horiz-adv-x="505" />
<glyph unicode=" "  horiz-adv-x="509" />
<glyph unicode="&#x09;" horiz-adv-x="509" />
<glyph unicode="&#xa0;" horiz-adv-x="509" />
<glyph unicode="!" horiz-adv-x="587" d="M221 0v148h125v-148h-125zM231 430v880h104v-880h-104z" />
<glyph unicode="&#x22;" horiz-adv-x="727" d="M195 979l23 230v195h104v-190l-64 -235h-63zM407 979l24 233v192h103v-190l-65 -235h-62z" />
<glyph unicode="#" horiz-adv-x="1143" d="M60 369v84h245l75 397h-251v86h267l71 374h90l-71 -374h283l71 374h90l-71 -374h206v-86h-223l-74 -397h229v-84h-245l-70 -369h-90l70 369h-282l-69 -369h-90l69 369h-230zM395 453h283l74 397h-282z" />
<glyph unicode="$" d="M108 350l3 5h101q0 -152 85.5 -225.5t224.5 -73.5h1q132 0 210.5 68.5t78.5 177.5q0 100 -64.5 162.5t-228.5 121.5q-196 61 -282 145.5t-86 233.5q0 147 89.5 238t245.5 104v182h92v-182q158 -15 243.5 -118.5t83.5 -279.5l-2 -5h-101q0 140 -72.5 224t-201.5 84 q-130 0 -200.5 -67.5t-70.5 -177.5q0 -105 62.5 -166.5t234.5 -119.5q195 -65 280 -148t85 -229q0 -149 -92.5 -238.5t-253.5 -102.5v-171h-91v170q-83 5 -151 30.5t-119 72t-78.5 119.5t-25.5 166z" />
<glyph unicode="%" horiz-adv-x="1363" d="M99 987v69q0 117 71 194t186 77q113 0 184 -77t71 -194v-69q0 -115 -70.5 -192t-183.5 -77q-114 0 -186 77t-72 192zM185 987q0 -82 46 -136.5t126 -54.5q78 0 123 54.5t45 136.5v69q0 83 -45 138t-124 55t-125 -55t-46 -138v-69zM347 150l640 1024l67 -43l-640 -1024z M758 248v70q0 116 71 193t185 77t185.5 -77t71.5 -193v-70q0 -115 -71 -192t-184 -77q-114 0 -186 77t-72 192zM845 248q0 -83 45.5 -137t125.5 -54q78 0 123 54.5t45 136.5v70q0 85 -45 138.5t-125 53.5q-79 0 -124 -54t-45 -138v-70z" />
<glyph unicode="&#x26;" horiz-adv-x="1134" d="M82 330q0 105 61.5 191.5t192.5 181.5l13 7q-75 93 -109 167t-34 151q0 142 79 219.5t221 77.5q128 0 205 -72t77 -184q0 -78 -38 -136t-120 -121l-143 -110l371 -432q92 131 92 312h99q0 -226 -127 -387l166 -195l-2 -4h-123l-110 127q-158 -146 -363 -146 q-188 0 -298 96t-110 257zM190 331q0 -116 78.5 -189t221.5 -73q172 0 303 125l-373 434q-6 6 -12 14l-43 -32q-175 -144 -175 -279zM314 1031q0 -116 115 -258l160 119q96 74 96 179q0 73 -48 118.5t-131 45.5v-1q-90 0 -141 -57t-51 -146z" />
<glyph unicode="'" horiz-adv-x="516" d="M195 984l23 240v180h104v-173l-64 -247h-63z" />
<glyph unicode="(" horiz-adv-x="761" d="M201 515v15q0 315 119.5 577t281.5 356l6 -1l23 -62q-137 -97 -231.5 -338t-94.5 -530v-18q0 -289 94 -529.5t232 -341.5l-23 -60h-6q-165 96 -283 354t-118 578z" />
<glyph unicode=")" horiz-adv-x="770" d="M131 -357q136 98 231 340t95 531v18q0 285 -95.5 528t-230.5 342l23 60h5q78 -45 150 -135.5t128 -211t90 -274t34 -312.5v-14q0 -321 -118.5 -578.5t-283.5 -353.5h-5z" />
<glyph unicode="*" horiz-adv-x="782" d="M26 1061l29 91l299 -111l-4 333h94l-7 -336l291 115l30 -91l-300 -104l201 -264l-77 -57l-192 275l-184 -273l-76 55l195 270z" />
<glyph unicode="+" horiz-adv-x="1040" d="M68 580v101h390v419h109v-419h399v-101h-399v-434h-109v434h-390z" />
<glyph unicode="," horiz-adv-x="353" d="M75 -258l62 251v150h107v-153l-95 -248h-74z" />
<glyph unicode="-" horiz-adv-x="527" d="M44 570v91h431v-91h-431z" />
<glyph unicode="." horiz-adv-x="440" d="M150 0v148h124v-148h-124z" />
<glyph unicode="/" horiz-adv-x="732" d="M27 -125l547 1423h97l-546 -1423h-98z" />
<glyph unicode="0" horiz-adv-x="1075" d="M122 506v293q0 253 108.5 390.5t305.5 137.5q198 0 307.5 -137.5t109.5 -390.5v-293q0 -253 -108.5 -390t-306.5 -137q-196 0 -306 137.5t-110 389.5zM230 490q0 -202 79.5 -311t228.5 -109q150 0 228.5 109t78.5 311v327q0 204 -79 311t-230 107q-150 0 -228 -107 t-78 -311v-327z" />
<glyph unicode="1" d="M169 1159v75l441 79v-1320h-108v1204z" />
<glyph unicode="2" horiz-adv-x="1021" d="M101 940q-5 168 106.5 279t298.5 111q170 0 271 -96.5t101 -261.5q0 -103 -62.5 -211t-194.5 -257l-361 -409l2 -4h675l1 -90h-814v83l430 487q119 135 168 225t49 173q0 124 -69.5 197t-194.5 73q-148 0 -226 -81.5t-78 -223.5h-100z" />
<glyph unicode="3" horiz-adv-x="1021" d="M94 349l1 5h101q0 -126 86.5 -205t225.5 -79q140 0 218 72.5t78 207.5q0 270 -316 270h-125l-1 94h125q140 0 215.5 69.5t75.5 185.5q0 126 -70.5 197t-205.5 71q-128 0 -207.5 -74t-79.5 -196h-101l-2 6q-4 154 107 255t283 101q178 0 281 -96t103 -267 q0 -95 -58.5 -176t-161.5 -121q120 -35 182 -116.5t62 -198.5q0 -172 -111.5 -273t-291.5 -101q-179 0 -298.5 100t-114.5 269z" />
<glyph unicode="4" d="M62 331v61l604 918h118v-888h205v-91h-205v-331h-107v331h-615zM190 422h487v747l-6 2l-45 -98z" />
<glyph unicode="5" d="M156 337l1 6h97q0 -131 74 -202t202 -71q291 0 291 344q0 149 -73 236.5t-203 87.5q-124 0 -190.5 -38.5t-97.5 -122.5l-88 14l73 717h636v-100h-544l-49 -467q54 48 114 71t156 26q169 2 271 -112.5t102 -309.5q0 -205 -101 -321t-298 -116q-170 0 -274 93t-99 265z" />
<glyph unicode="6" d="M137 484v330q0 226 127 369.5t318 143.5q145 0 251 -59l-28 -88q-54 30 -104 42.5t-119 12.5q-147 0 -242 -113.5t-95 -297.5v-116q55 72 139 113.5t184 41.5q176 0 279 -120.5t103 -317.5q0 -196 -110.5 -321t-286.5 -125q-185 0 -300.5 136t-115.5 369zM245 476 q0 -187 85 -296.5t223 -109.5q130 0 209.5 101t79.5 254q0 161 -77.5 255.5t-218.5 94.5q-108 0 -189 -56t-112 -147v-96z" />
<glyph unicode="7" d="M69 1219v91h860l-1 -90q-215 -255 -326.5 -514t-148.5 -596l-10 -110h-108l10 110q37 327 153.5 596t318.5 513h-748z" />
<glyph unicode="8" d="M90 345q0 115 70 201t192 124q-105 36 -165 115.5t-60 185.5q0 167 104.5 261.5t278.5 94.5t280 -95t106 -261q0 -105 -61 -185.5t-166 -116.5q121 -38 192.5 -124t71.5 -200q0 -174 -115 -270t-306 -96q-193 0 -307.5 95.5t-114.5 270.5zM197 344q0 -127 86 -200.5 t229 -73.5q140 0 226.5 74t86.5 200q0 125 -89 203t-226 78t-225 -78t-88 -203zM234 972q0 -115 77.5 -185.5t200.5 -70.5q122 0 199 70.5t77 185.5q0 113 -79.5 188t-198.5 75q-122 0 -199 -72.5t-77 -190.5z" />
<glyph unicode="9" d="M79 860q0 200 114.5 333.5t284.5 133.5q195 0 306.5 -125t111.5 -358v-386q0 -226 -118.5 -352.5t-318.5 -126.5q-153 0 -275 55l19 90q115 -54 256 -54q152 0 239 100.5t87 285.5v131q-48 -83 -128 -127.5t-180 -44.5q-179 0 -288.5 123t-109.5 322zM191 860 q0 -154 78 -254t208 -100q113 0 193 57t116 150v139q0 185 -80 284t-223 99q-126 0 -208.5 -108t-82.5 -267h-1z" />
<glyph unicode=":" horiz-adv-x="391" d="M123 0v133h112v-133h-112zM123 824v133h112v-133h-112z" />
<glyph unicode=";" horiz-adv-x="394" d="M89 -258l55 226v135h97v-138l-86 -223h-66zM127 800v133h112v-133h-112z" />
<glyph unicode="&#x3c;" horiz-adv-x="942" d="M69 463v87l745 341v-114l-553 -245l-97 -25v-5l97 -25l553 -242v-113z" />
<glyph unicode="=" horiz-adv-x="1032" d="M134 422v95h751v-95h-751zM134 792v95h751v-95h-751z" />
<glyph unicode="&#x3e;" horiz-adv-x="955" d="M112 122v112l568 246l98 25v5l-98 26l-568 244v111l760 -341v-87z" />
<glyph unicode="?" d="M176 1010q-3 148 91 233.5t246 85.5q161 0 251.5 -90t90.5 -246q0 -116 -55 -208t-174 -203q-54 -47 -67.5 -86.5t-13.5 -131.5l-102 1q1 83 8.5 123t31.5 74.5t82 87.5q59 60 87.5 93.5t55 75t35.5 81.5t9 93q0 117 -61.5 181.5t-176.5 64.5q-109 0 -173.5 -63 t-66.5 -172h-95zM441 1v134h121v-134h-121z" />
<glyph unicode="@" horiz-adv-x="1683" d="M110 385q10 254 108.5 446t271 297t396.5 105h1q350 0 527.5 -214.5t162.5 -602.5q-5 -99 -31.5 -185t-73 -152.5t-119.5 -104.5t-163 -38q-70 0 -117.5 45.5t-62.5 128.5q-95 -174 -279 -174q-118 0 -179 107.5t-44 285.5q21 229 126.5 367t257.5 138q80 0 130.5 -21.5 t118.5 -75.5l-1 -2h2l-45 -517q-8 -110 24 -157.5t89 -47.5q126 0 201 109.5t85 293.5q16 358 -137 548t-476 190q-293 0 -481 -211t-203 -558q-17 -346 147.5 -554t466.5 -208q79 0 159.5 19.5t137.5 52.5l28 -68q-57 -37 -148.5 -58.5t-180.5 -21.5q-343 0 -529.5 223.5 t-169.5 614.5zM606 329q-15 -141 23.5 -223t123.5 -82q84 0 146 40.5t107 139.5v14l43 490q-61 44 -143 44q-123 0 -201 -108t-99 -315z" />
<glyph unicode="A" horiz-adv-x="1151" d="M29 0l498 1310h101l494 -1310h-111l-135 365h-601l-135 -365h-111zM311 462h530l-261 709h-6z" />
<glyph unicode="B" horiz-adv-x="1142" d="M172 -1v1310h382q209 0 320.5 -86t111.5 -258q0 -101 -56.5 -175.5t-155.5 -103.5q120 -22 194.5 -112t74.5 -209q0 -175 -112 -270t-306 -95zM279 89h346q146 0 228 71.5t82 200.5q0 122 -76.5 195.5t-216.5 73.5h-363v-541zM279 721h302q144 0 220.5 62.5t76.5 183.5 q0 251 -324 251h-275v-497z" />
<glyph unicode="C" horiz-adv-x="1182" d="M118 546v213q0 253 134 410.5t353 157.5q209 0 331 -110t139 -312l-1 -5h-101q-45 335 -367 335q-171 0 -275.5 -131.5t-104.5 -342.5v-215q0 -213 104 -344.5t276 -131.5q165 0 256 84t112 253h100l1 -5q-17 -199 -140 -311t-330 -112q-219 0 -353 157t-134 410z" />
<glyph unicode="D" horiz-adv-x="1210" d="M172 0v1310h381q242 0 397.5 -160t155.5 -411v-168q0 -253 -155.5 -412t-397.5 -159h-381zM279 91h274q195 0 320 135t125 345v171q0 207 -125.5 342t-319.5 135h-274v-1128z" />
<glyph unicode="E" horiz-adv-x="1062" d="M172 0v1310h825v-91h-718v-493h631v-91h-631v-544h723v-91h-830z" />
<glyph unicode="F" horiz-adv-x="1063" d="M172 0v1310h836v-91h-729v-512h637v-93h-637v-614h-107z" />
<glyph unicode="G" horiz-adv-x="1261" d="M131 538v240q0 244 139 396.5t361 152.5q207 0 328.5 -103t140.5 -277l-2 -6h-100q-24 139 -114 216.5t-253 77.5q-176 0 -284 -126.5t-108 -328.5v-242q0 -207 114.5 -337.5t299.5 -130.5q123 0 216.5 34.5t129.5 81.5v342h-348v92h456v-466q-49 -72 -168.5 -123.5 t-285.5 -51.5q-231 0 -376.5 155.5t-145.5 403.5z" />
<glyph unicode="H" horiz-adv-x="1303" d="M172 0v1310h107v-615h745v615h107v-1310h-107v603h-745v-603h-107z" />
<glyph unicode="I" horiz-adv-x="499" d="M195 0v1310h108v-1310h-108z" />
<glyph unicode="J" horiz-adv-x="1014" d="M74 353l2 6h100q0 -142 75 -215.5t217 -73.5q122 0 198.5 81.5t76.5 218.5v938h108v-938q0 -178 -106 -284.5t-277 -106.5q-189 0 -294 97q-100 92 -100 261v16z" />
<glyph unicode="K" horiz-adv-x="1177" d="M172 0v1310h107v-603h179l516 603h121l2 -4l-542 -640l581 -661l-2 -5h-128l-547 617h-180v-617h-107z" />
<glyph unicode="L" horiz-adv-x="971" d="M172 0v1310h108v-1219h648v-91h-756z" />
<glyph unicode="M" horiz-adv-x="1598" d="M172 0v1310h141l482 -1153h5l483 1153h143v-1310h-107v579l9 573l-6 2l-487 -1154h-74l-486 1148h-6l10 -569v-579h-107z" />
<glyph unicode="N" horiz-adv-x="1309" d="M172 0v1310h108l744 -1125l6 1v1124h107v-1310h-107l-745 1127l-5 -1v-1126h-108z" />
<glyph unicode="O" horiz-adv-x="1240" d="M112 546v213q0 256 136.5 412t367.5 156q234 0 373.5 -156t139.5 -412v-213q0 -256 -139 -411.5t-373 -155.5q-231 0 -368 155.5t-137 411.5zM220 546q0 -218 105 -345.5t292 -127.5q190 0 297.5 127.5t107.5 345.5v215q0 216 -108.5 344t-297.5 128 q-187 0 -291.5 -127.5t-104.5 -344.5v-215z" />
<glyph unicode="P" horiz-adv-x="1140" d="M172 1v1310h451q205 0 318.5 -103t113.5 -279q0 -178 -113.5 -281t-318.5 -103l-344 1v-545h-107zM279 636h344q158 0 241.5 80t83.5 211q0 132 -83.5 212.5t-241.5 80.5h-344v-584z" />
<glyph unicode="Q" horiz-adv-x="1241" d="M112 527v213q0 256 136.5 412t367.5 156q234 0 373.5 -156t139.5 -412v-213q0 -148 -48.5 -265.5t-140.5 -193.5l225 -213l-75 -67l-238 224q-105 -52 -235 -52q-231 0 -368 155.5t-137 411.5zM220 527q0 -218 105 -345.5t292 -127.5q190 0 297.5 127.5t107.5 345.5v215 q0 215 -108.5 343.5t-297.5 128.5q-187 0 -291.5 -128t-104.5 -344v-215z" />
<glyph unicode="R" horiz-adv-x="1213" d="M169 0v1310h444q213 0 324.5 -92.5t111.5 -269.5q0 -106 -60.5 -187.5t-170.5 -119.5q229 -59 229 -307v-123q0 -133 62 -189v-22h-110q-60 59 -60 212v120q0 122 -78 191t-217 69h-368v-592h-107zM276 684h323q174 0 258 69t84 196q0 131 -82 200t-246 69h-337v-534z " />
<glyph unicode="S" horiz-adv-x="1108" d="M90 365l2 6h99q0 -99 53 -168.5t138 -101t192 -31.5q157 0 252.5 68.5t95.5 180.5q0 108 -81 175.5t-278 119.5q-224 56 -330.5 143t-106.5 231q0 150 123.5 244.5t318.5 94.5q200 0 326 -111q122 -108 122 -266v-10l-2 -5h-99q0 134 -94 217t-252 83q-155 0 -245 -68.5 t-90 -175.5q0 -101 83 -166.5t282 -115.5q218 -55 325 -148t107 -240q0 -156 -126.5 -249t-329.5 -93q-100 0 -187.5 25t-155.5 72q-68 48 -106 122q-37 71 -36 158v9z" />
<glyph unicode="T" horiz-adv-x="1092" d="M41 1219v91h1009v-91h-451v-1219h-108v1219h-450z" />
<glyph unicode="U" horiz-adv-x="1237" d="M150 420v888h108v-888q0 -165 97.5 -257.5t260.5 -92.5q166 0 265.5 92t99.5 258v888h107v-888q0 -211 -128 -326t-344 -115q-213 0 -339.5 115.5t-126.5 325.5z" />
<glyph unicode="V" horiz-adv-x="1137" d="M29 1310h117l394 -1089l26 -87h6l26 87l393 1089h117l-489 -1310h-101z" />
<glyph unicode="W" horiz-adv-x="1651" d="M51 1310h111l239 -939l39 -201l6 -1l49 202l277 939h102l277 -939l48 -203l5 1l43 202l236 939h110l-337 -1310h-101l-295 1005l-34 138h-5l-33 -138l-297 -1005h-103z" />
<glyph unicode="X" horiz-adv-x="1130" d="M53 0l450 664l-436 646h130l368 -559l370 559h131l-436 -646l450 -664h-129l-384 578l-383 -578h-131z" />
<glyph unicode="Y" horiz-adv-x="1120" d="M30 1310h125l403 -728l406 728h125l-478 -831v-479h-107v485z" />
<glyph unicode="Z" horiz-adv-x="1102" d="M86 0v83l772 1136h-748v91h879v-78l-775 -1141h804v-91h-932z" />
<glyph unicode="[" horiz-adv-x="622" d="M223 -281v1779h294v-88h-191v-1603h191v-88h-294z" />
<glyph unicode="\" horiz-adv-x="726" d="M43 1298h106l547 -1423h-106z" />
<glyph unicode="]" horiz-adv-x="622" d="M114 -193h190v1603h-190v88h293v-1779h-293v88z" />
<glyph unicode="^" horiz-adv-x="767" d="M69 729l269 654h81l269 -654h-105l-176 436l-27 95h-6l-27 -95l-173 -436h-105z" />
<glyph unicode="_" horiz-adv-x="796" d="M1 -10h793v-91h-793v91z" />
<glyph unicode="`" horiz-adv-x="527" d="M84 1445l2 4h138l182 -239h-105z" />
<glyph unicode="a" horiz-adv-x="991" d="M93 256q0 136 116.5 216.5t314.5 80.5h215v121q0 105 -67 164t-188 59q-112 0 -186.5 -56t-74.5 -139l-99 1l-2 5v10q0 106 102 186q106 84 265 85q165 0 261 -83t96 -234v-479q0 -101 25 -195l-113 -2q-20 88 -20 159q-57 -80 -147 -128.5t-199 -48.5q-141 0 -220 74.5 t-79 203.5zM200 254q0 -81 55 -130.5t150 -49.5q114 0 203.5 53.5t130.5 140.5v203h-217q-145 0 -233.5 -61.5t-88.5 -155.5z" />
<glyph unicode="b" horiz-adv-x="1026" d="M139 -2v1404h108v-583q103 171 306 171q175 0 274.5 -138.5t99.5 -374.5l-2 -19q0 -221 -99 -350t-273 -129q-211 0 -309 166l-12 -147h-93zM248 257q78 -184 285 -184q139 0 211 101.5t72 283.5l1 19q0 192 -73.5 305.5t-211.5 113.5q-206 0 -284 -199v-440z" />
<glyph unicode="c" horiz-adv-x="955" d="M87 466v38q0 218 110.5 352t304.5 134q162 0 268 -96q102 -92 102 -236v-11l-2 -6h-96q0 116 -77 186.5t-195 70.5q-151 0 -229 -107.5t-78 -286.5v-38h-1q0 -182 77.5 -289t230.5 -107q112 0 191.5 63t79.5 168h95l2 -5v-11q0 -126 -105 -214q-110 -92 -262 -92 q-196 0 -306 133.5t-110 353.5z" />
<glyph unicode="d" horiz-adv-x="1026" d="M100 458v19q0 236 99 374.5t274 138.5q199 0 302 -166v578h107v-1404h-95l-9 141q-103 -160 -305 -160q-175 0 -274 129t-99 350zM208 458q0 -182 71.5 -283.5t211.5 -101.5q201 0 283 176v457q-83 190 -281 190q-139 0 -212 -113.5t-73 -305.5v-19z" />
<glyph unicode="e" horiz-adv-x="950" d="M83 456v50q0 208 119 346t292 138q179 0 281.5 -112.5t102.5 -303.5v-92h-687v-26q0 -168 87.5 -277t229.5 -109q190 0 293 108l46 -74q-122 -125 -339 -125q-184 0 -304.5 135t-120.5 342zM199 578l2 -5h570v27q0 130 -75 214t-202 84q-119 0 -200.5 -90t-94.5 -230z " />
<glyph unicode="f" horiz-adv-x="606" d="M59 886v88h162v142q0 148 72.5 227.5t206.5 79.5q56 0 122 -17l-14 -89q-44 11 -98 11q-88 0 -134.5 -55t-46.5 -157v-142h232v-88h-232v-886h-108v886h-162z" />
<glyph unicode="g" horiz-adv-x="1027" d="M100 417l1 19q0 236 100 374.5t276 138.5q201 0 304 -174l13 156h91v-961q0 -190 -104 -298t-289 -108q-72 0 -151 17t-137 47l27 91q118 -59 259 -59t214 80.5t73 229.5v122q-105 -154 -302 -154q-175 0 -275 129.5t-100 349.5zM208 417q0 -180 73 -283t213 -103 q201 0 282 179v452q-80 193 -280 193q-139 0 -213.5 -114t-74.5 -306v-18z" />
<glyph unicode="h" horiz-adv-x="1026" d="M142 0v1404h108l-1 -597q103 185 320 185q318 0 318 -392v-600h-108v602q0 296 -234 296q-109 0 -184 -56t-111 -156v-686h-108z" />
<glyph unicode="i" horiz-adv-x="419" d="M156 0v974h107v-974h-107zM156 1253v151h107v-151h-107z" />
<glyph unicode="j" horiz-adv-x="436" d="M-103 -420l12 91q40 -14 83 -14q81 0 125.5 56t44.5 163v1054h108v-1054q0 -150 -71.5 -231.5t-200.5 -81.5q-45 0 -101 17zM157 1213v147h107v-147h-107z" />
<glyph unicode="k" horiz-adv-x="905" d="M143 0v1404h108v-837h114l361 407h126l2 -5l-390 -439l431 -525l-3 -5h-123l-394 474h-124v-474h-108z" />
<glyph unicode="l" horiz-adv-x="419" d="M156 0v1404h107v-1404h-107z" />
<glyph unicode="m" horiz-adv-x="1634" d="M137 0v974h97l10 -161q99 179 311 179q229 0 294 -219q94 219 324 219q325 0 325 -424v-568h-108v570q0 175 -60.5 251.5t-180.5 76.5q-121 0 -191 -74.5t-88 -204.5q0 -4 0.5 -17.5t0.5 -17.5v-584h-109v570q0 171 -61.5 249.5t-179.5 78.5q-216 0 -275 -214v-684h-109z " />
<glyph unicode="n" horiz-adv-x="1026" d="M142 0v974h96l9 -170q98 188 316 188q161 0 242.5 -97.5t81.5 -301.5v-593h-108v592q0 163 -60.5 234.5t-180.5 71.5q-110 0 -182.5 -57.5t-105.5 -160.5v-680h-108z" />
<glyph unicode="o" horiz-adv-x="1026" d="M82 470v29q0 218 118 354.5t312 136.5t312.5 -136.5t118.5 -354.5v-29q0 -218 -117.5 -354.5t-311.5 -136.5q-196 0 -314 136t-118 355zM190 470q0 -176 87 -288t237 -112q148 0 235 112.5t87 287.5v29q0 172 -88 285.5t-236 113.5t-235 -113t-87 -286v-29z" />
<glyph unicode="p" horiz-adv-x="1026" d="M140 -417v1348h91l14 -151q99 169 307 169q175 0 274.5 -138.5t99.5 -374.5v-19q0 -220 -99 -349t-273 -129q-204 0 -306 149v-505h-108zM249 201q80 -172 281 -172q139 0 213.5 104.5t74.5 284.5v18q0 192 -75 306t-215 114q-200 0 -279 -187v-468z" />
<glyph unicode="q" horiz-adv-x="1026" d="M100 418l1 19q0 236 99 374.5t274 138.5q201 0 299 -161l11 143h94v-1348h-107v502q-103 -146 -298 -146q-175 0 -274 128.5t-99 349.5zM209 418q0 -182 72 -285t211 -103q192 0 279 170v477q-85 181 -277 181q-139 0 -212 -113.5t-73 -307.5v-19z" />
<glyph unicode="r" horiz-adv-x="627" d="M143 0v974h95l13 -162v-11q92 191 283 191q37 0 71 -10l-14 -101l-80 6q-99 0 -165 -56t-95 -159v-672h-108z" />
<glyph unicode="s" horiz-adv-x="939" d="M99 265l2 6h99q6 -101 81.5 -151t191.5 -50v1q115 0 183.5 50.5t68.5 124.5q0 73 -58.5 122t-200.5 81q-180 39 -260.5 101.5t-80.5 173.5q0 115 95 190.5t248 75.5q164 0 260 -80q93 -77 93 -196v-10l-2 -5h-100q0 83 -69.5 141t-181.5 58q-113 0 -174.5 -48.5 t-61.5 -121.5q0 -72 53.5 -114.5t200.5 -74.5q179 -40 263 -107.5t84 -180.5q0 -122 -98.5 -197t-261.5 -75q-173 1 -276 83q-98 79 -98 192v11z" />
<glyph unicode="t" horiz-adv-x="612" d="M34 884v88h169v249h108v-249h215v-88h-215v-635q0 -175 127 -175q53 0 108 9l17 -80q-58 -24 -144 -24q-216 0 -216 270v635h-169z" />
<glyph unicode="u" horiz-adv-x="1026" d="M139 407v565h108v-566q0 -175 58.5 -254t174.5 -79q235 0 297 206v693h108v-974h-96l-8 159q-97 -178 -314 -178q-158 0 -243 106.5t-85 321.5z" />
<glyph unicode="v" horiz-adv-x="902" d="M40 974h111l268 -730l32 -114h5l35 114l264 730h112l-370 -974h-87z" />
<glyph unicode="w" horiz-adv-x="1395" d="M59 974h111l182 -658l37 -174h5l46 174l207 658h93l207 -658l47 -178h5l41 178l177 658h111l-283 -974h-92l-216 666l-42 168h-6l-43 -168l-212 -666h-93z" />
<glyph unicode="x" horiz-adv-x="902" d="M45 0l345 496l-331 478h127l262 -398l264 398h128l-331 -478l344 -496h-126l-277 415l-277 -415h-128z" />
<glyph unicode="y" horiz-adv-x="902" d="M32 930h119l267 -710l34 -116h5l294 826h121l-423 -1129q-44 -115 -105.5 -176.5t-168.5 -61.5q-53 0 -85 13l13 90q30 -7 69 -7q66 0 109 46t75 132l52 132z" />
<glyph unicode="z" horiz-adv-x="902" d="M81 0v79l587 802h-569v93h705v-80l-590 -803h633v-91h-766z" />
<glyph unicode="{" horiz-adv-x="794" d="M137 490v90q209 0 209 233v207q0 161 71 265.5t231 152.5l23 -68q-222 -72 -222 -351v-207q0 -218 -175 -280q87 -29 131 -101.5t44 -176.5v-205q0 -271 225 -348l-26 -68q-160 49 -231 153t-71 264v205q0 114 -52 174.5t-157 60.5z" />
<glyph unicode="|" horiz-adv-x="553" d="M235 -243v1553h88v-1553h-88z" />
<glyph unicode="}" horiz-adv-x="794" d="M121 -300q225 78 225 348v205q0 222 179 279q-179 57 -179 279v207q0 279 -223 351l24 68q158 -48 230 -153t72 -265v-207q0 -233 209 -233v-90q-209 0 -209 -235v-205q0 -160 -71.5 -264t-230.5 -153z" />
<glyph unicode="~" horiz-adv-x="1262" d="M129 469q0 120 71.5 201t181.5 81q76 0 141 -31.5t149 -103.5q57 -52 104.5 -75t100.5 -23q70 0 118 58t48 146l88 -14q0 -118 -73 -201.5t-181 -83.5q-78 0 -142.5 31t-146.5 104q-113 96 -206 96q-72 0 -119 -54.5t-47 -144.5z" />
<glyph unicode="&#xa2;" horiz-adv-x="1004" d="M106 449v32q0 202 95 332t262 151v198h108v-197q141 -15 231 -109t95 -235h-103q-7 115 -82 185t-190 70q-147 0 -227 -105t-80 -296v-31l-2 1q0 -189 80.5 -292.5t227.5 -103.5q112 0 188 63t84 165h103q-7 -125 -98 -213t-227 -103v-205h-108v206q-167 21 -262 149 t-95 338z" />
<glyph unicode="&#xa3;" horiz-adv-x="1053" d="M84 581v93h165l-8 261q0 181 99 287t267 106q163 0 258 -94t95 -255h-110q0 121 -67 188t-184 67q-114 0 -180 -79.5t-66 -219.5l8 -261h310v-93l-306 1l8 -250q2 -158 -58 -238h671v-94h-898v94h89q44 11 68 96q18 64 16 140l-8 251h-169z" />
<glyph unicode="&#xa5;" horiz-adv-x="1101" d="M40 1310h128l378 -649l379 649h129l-408 -675h331v-81h-377v-183h377v-79h-377v-292h-110v292h-373v79h373v183h-373v81h329z" />
<glyph unicode="&#xa8;" horiz-adv-x="793" d="M129 1388q0 32 19.5 52.5t54.5 20.5q34 0 54 -20.5t20 -52.5q0 -31 -20 -51t-54 -20q-35 0 -54.5 20t-19.5 51zM522 1387q0 32 20 52.5t54 20.5q35 0 55 -20.5t20 -52.5q0 -31 -20.5 -51t-54.5 -20t-54 20t-20 51z" />
<glyph unicode="&#xa9;" horiz-adv-x="1473" d="M96 654q0 187 85 341.5t231.5 242.5t322.5 88t322 -88t231 -242.5t85 -341.5t-85 -342.5t-231.5 -244t-321.5 -88.5q-131 0 -249.5 52.5t-204 142t-135.5 215t-50 265.5zM173 654q0 -165 74.5 -302.5t203.5 -216.5t284 -79q153 0 282.5 79t204.5 216.5t75 302.5 q0 123 -44 233.5t-119.5 189.5t-179.5 125t-219 46q-116 0 -220 -46t-179 -125t-119 -189.5t-44 -233.5zM427 600v107q0 157 81.5 252.5t217.5 95.5q135 0 208.5 -71t69.5 -205l-1 -5h-82q0 200 -195 200q-98 0 -154 -73.5t-56 -192.5v-108q0 -121 55.5 -194t154.5 -73 q98 0 146 49t48 152h82l2 -5q3 -134 -70 -205.5t-208 -71.5q-136 0 -217.5 95t-81.5 253z" />
<glyph unicode="&#xab;" horiz-adv-x="840" d="M101 489v17l266 341h94l-248 -350l248 -349h-94zM410 489v17l266 341h94l-248 -350l248 -349h-94z" />
<glyph unicode="&#xad;" horiz-adv-x="527" d="M44 570v91h431v-91h-431z" />
<glyph unicode="&#xae;" horiz-adv-x="1478" d="M92 655q0 184 84 339t233 245q150 89 322.5 89t322.5 -89q149 -90 233 -245t84 -339q0 -181 -82 -335.5t-231 -247.5q-150 -94 -326.5 -94t-326.5 94q-149 93 -231 247.5t-82 335.5zM166 654q0 -162 75 -300t207 -218t281.5 -80t282.5 80q131 80 205 218t74 299 q0 160 -72.5 296.5t-203.5 217.5q-130 81 -284 81q-152 0 -282 -79t-206 -218h-2q-75 -137 -75 -297zM495 287v755h232q134 0 204.5 -56t70.5 -167q0 -119 -127 -178q115 -41 115 -189q0 -112 15 -150v-14h-92q-12 31 -12 163q0 80 -33.5 113t-115.5 33h-169v-310h-88z M583 679h163q74 0 120.5 38t46.5 100q0 77 -39 109.5t-134 34.5h-157v-282z" />
<glyph unicode="&#xb4;" horiz-adv-x="518" d="M112 1245l172 251h130l-208 -251h-94z" />
<glyph unicode="&#xb8;" horiz-adv-x="448" d="M88 -365q81 0 131.5 29.5t50.5 78.5q0 50 -36.5 71t-121.5 28l26 114h83l-10 -57q148 -19 148 -154q0 -83 -71 -131.5t-193 -48.5z" />
<glyph unicode="&#xbb;" horiz-adv-x="835" d="M94 162l249 349l-249 355h96l265 -346v-17l-265 -341h-96zM413 162l249 349l-249 355h96l265 -346v-17l-265 -341h-96z" />
<glyph unicode="&#x2c6;" horiz-adv-x="792" d="M144 1258v12l214 229h69l217 -232v-9h-100l-152 165l-150 -165h-98z" />
<glyph unicode="&#x2da;" horiz-adv-x="572" d="M106 1376q0 72 51 121.5t123 49.5t123 -49.5t51 -121.5t-50 -120t-125 -48h2q-75 0 -125 48t-50 120zM177 1376q0 -45 29.5 -74.5t74.5 -29.5t75 29t30 75q0 47 -31 77t-74 30q-44 0 -74 -30.5t-30 -76.5z" />
<glyph unicode="&#x2dc;" horiz-adv-x="802" d="M95 1267q0 83 49.5 137t126.5 54q27 0 52.5 -8t40.5 -17t38 -25q25 -17 37 -25t35.5 -16t46.5 -8q43 0 71.5 30t28.5 79l80 -5q0 -85 -50 -138.5t-125 -53.5q-39 0 -87 24.5t-91.5 49.5t-72.5 25q-43 0 -71 -28.5t-28 -77.5z" />
<glyph unicode="&#x2000;" horiz-adv-x="773" />
<glyph unicode="&#x2001;" horiz-adv-x="1547" />
<glyph unicode="&#x2002;" horiz-adv-x="773" />
<glyph unicode="&#x2003;" horiz-adv-x="1547" />
<glyph unicode="&#x2004;" horiz-adv-x="515" />
<glyph unicode="&#x2005;" horiz-adv-x="386" />
<glyph unicode="&#x2006;" horiz-adv-x="257" />
<glyph unicode="&#x2007;" horiz-adv-x="257" />
<glyph unicode="&#x2008;" horiz-adv-x="193" />
<glyph unicode="&#x2009;" horiz-adv-x="309" />
<glyph unicode="&#x200a;" horiz-adv-x="85" />
<glyph unicode="&#x2010;" horiz-adv-x="527" d="M44 570v91h431v-91h-431z" />
<glyph unicode="&#x2011;" horiz-adv-x="527" d="M44 570v91h431v-91h-431z" />
<glyph unicode="&#x2012;" horiz-adv-x="527" d="M44 570v91h431v-91h-431z" />
<glyph unicode="&#x2013;" horiz-adv-x="1273" d="M140 686v83h879v-83h-879z" />
<glyph unicode="&#x2014;" horiz-adv-x="1500" d="M143 686v83h1081v-83h-1081z" />
<glyph unicode="&#x2018;" horiz-adv-x="512" d="M176 971v157l97 276h63l-57 -277v-156h-103z" />
<glyph unicode="&#x2019;" horiz-adv-x="512" d="M176 972l57 270v162h103v-160l-97 -272h-63z" />
<glyph unicode="&#x201a;" horiz-adv-x="318" d="M37 -184q75 100 82 207l1 138h107v-90q0 -188 -126 -302z" />
<glyph unicode="&#x201c;" horiz-adv-x="731" d="M176 971v157l97 276h63l-57 -277v-156h-103zM395 971v157l97 276h63l-57 -277v-156h-103z" />
<glyph unicode="&#x201d;" horiz-adv-x="735" d="M176 972l57 270v162h103v-160l-97 -272h-63zM399 972l57 270v162h103v-160l-97 -272h-63z" />
<glyph unicode="&#x201e;" horiz-adv-x="534" d="M37 -193q79 109 84 235v146h107v-117h-1q0 -194 -126 -311zM249 -193q79 112 80 235v146h108v-117h1q0 -194 -126 -311z" />
<glyph unicode="&#x2026;" horiz-adv-x="1182" d="M154 0v133h112v-133h-112zM523 0v133h112v-133h-112zM876 0v133h112v-133h-112z" />
<glyph unicode="&#x202f;" horiz-adv-x="309" />
<glyph unicode="&#x2039;" horiz-adv-x="548" d="M97 508v17l266 341h94l-248 -350l248 -349h-94z" />
<glyph unicode="&#x203a;" horiz-adv-x="548" d="M87 162l249 349l-249 355h96l265 -346v-17l-265 -341h-96z" />
<glyph unicode="&#x205f;" horiz-adv-x="386" />
<glyph unicode="&#x20ac;" d="M76 505v80h173v147h-173v81h173q0 243 127.5 378t353.5 135q81 0 208 -27l-9 -99q-104 32 -199 32q-180 0 -276 -106.5t-96 -312.5h377v-81h-377v-147h377v-80h-377v-16q0 -199 97.5 -307.5t276.5 -108.5q105 0 198 30l9 -96q-99 -27 -207 -27q-225 0 -353 132t-130 368 v25h-173z" />
<glyph unicode="&#x2122;" horiz-adv-x="1138" d="M96 1340v62h352v-62h-143v-421h-66v421h-143zM522 919v483h82l144 -387l144 387h81v-483h-65v374l-137 -374h-46l-137 381v-381h-66z" />
<glyph unicode="&#x25fc;" horiz-adv-x="975" d="M0 0v975h975v-975h-975z" />
</font>
</defs>
</svg>
