<?xml version="1.0" standalone="no"?>
<!DOCTYPE svg PUBLIC "-//W3C//DTD SVG 1.1//EN" "http://www.w3.org/Graphics/SVG/1.1/DTD/svg11.dtd" >
<svg xmlns="http://www.w3.org/2000/svg" xmlns:xlink="http://www.w3.org/1999/xlink" version="1.1">
<metadata></metadata>
<defs>
<font id="yantramanav_regularregular" horiz-adv-x="1038" >
<font-face units-per-em="2048" ascent="1536" descent="-512" />
<missing-glyph horiz-adv-x="520" />
<glyph horiz-adv-x="0" />
<glyph unicode="&#xd;" horiz-adv-x="505" />
<glyph unicode=" "  horiz-adv-x="520" />
<glyph unicode="&#x09;" horiz-adv-x="520" />
<glyph unicode="&#xa0;" horiz-adv-x="520" />
<glyph unicode="!" horiz-adv-x="667" d="M226 0v184h178v-184h-178zM226 430v880h177v-880h-177z" />
<glyph unicode="&#x22;" horiz-adv-x="847" d="M198 936v468h177v-243l-91 -225h-86zM476 936v468h177v-243l-91 -225h-86z" />
<glyph unicode="#" horiz-adv-x="1148" d="M63 369v126h238l61 313h-231v128h256l74 374h136l-74 -374h229l74 374h136l-74 -374h179v-128h-203l-61 -313h197v-126h-222l-72 -369h-137l72 369h-230l-72 -369h-136l72 369h-212zM437 495h229l61 313h-229z" />
<glyph unicode="$" d="M103 361l1 4h171q0 -132 66 -194t176 -62l1 1q116 0 181 55.5t65 153.5q0 81 -57.5 138t-188.5 102q-188 57 -278 149t-90 242q0 149 84.5 242.5t235.5 112.5v199h142v-200q152 -21 235 -129t83 -288h-177q0 124 -57 198.5t-157 74.5q-105 0 -158 -54t-53 -153 q0 -88 54.5 -142t196.5 -103q190 -61 276.5 -150t86.5 -239q0 -153 -92 -245t-256 -109v-173h-141v172q-164 17 -259 116.5t-91 280.5z" />
<glyph unicode="%" horiz-adv-x="1348" d="M94 987v69q0 118 74.5 194.5t196.5 76.5t196 -76.5t74 -194.5v-69q0 -117 -73.5 -193t-195.5 -76q-123 0 -197.5 76t-74.5 193zM225 987q0 -70 37.5 -114.5t103.5 -44.5q64 0 101 44.5t37 114.5v69q0 70 -37.5 115.5t-101.5 45.5q-66 0 -103 -45.5t-37 -115.5v-69z M314 157l640 1024l98 -60l-640 -1024zM728 249v70q0 117 74.5 193.5t196.5 76.5q121 0 196 -76.5t75 -193.5v-70q0 -117 -74.5 -193.5t-194.5 -76.5q-123 0 -198 76.5t-75 193.5zM860 249q0 -70 37 -115t104 -45q64 0 101 45t37 115v70q0 69 -38 114.5t-102 45.5 q-65 0 -102 -45t-37 -115v-70z" />
<glyph unicode="&#x26;" horiz-adv-x="1148" d="M58 351q0 106 60.5 187.5t192.5 168.5q-74 92 -106.5 161.5t-32.5 140.5q0 153 86.5 235t242.5 82q141 0 231 -80.5t90 -198.5q0 -85 -44.5 -148.5t-142.5 -135.5l-99 -72l306 -368q79 123 79 280h158q0 -237 -137 -400l167 -201l-2 -4h-206l-77 92q-148 -111 -340 -111 q-194 0 -310 102.5t-116 269.5zM235 351q0 -105 65 -169t184 -64q131 0 247 85l-325 392l-36 -26q-135 -102 -135 -218zM349 1012q0 -88 97 -212l125 85q88 61 88 163q0 57 -44.5 98.5t-113.5 41.5q-71 0 -111.5 -49.5t-40.5 -126.5z" />
<glyph unicode="'" horiz-adv-x="569" d="M198 949v455h177v-201l-91 -254h-86z" />
<glyph unicode="(" horiz-adv-x="821" d="M179 524v9q0 137 26 268t69.5 235.5t101 192.5t120 148.5t126.5 94.5l6 -1l34 -104q-133 -104 -219.5 -320t-86.5 -513v-12q0 -296 85.5 -511.5t220.5 -330.5l-34 -97h-6q-81 44 -158 129t-141.5 203.5t-104 277.5t-39.5 331z" />
<glyph unicode=")" horiz-adv-x="822" d="M159 -321q132 103 219 323t87 519v12q0 288 -89 509.5t-217 331.5l35 97h5q81 -43 158.5 -128.5t142 -203.5t104 -277t39.5 -330v-9q0 -172 -39.5 -331t-104 -277.5t-142 -203.5t-158.5 -129h-5z" />
<glyph unicode="*" horiz-adv-x="796" d="M25 1025l44 138l267 -100l-9 308h145l-9 -313l263 99l44 -140l-272 -81l173 -243l-117 -86l-163 258l-159 -251l-119 84l179 247z" />
<glyph unicode="+" horiz-adv-x="1046" d="M70 559v160h362v381h177v-381h359v-160h-359v-413h-177v413h-362z" />
<glyph unicode="," horiz-adv-x="364" d="M43 -258l63 284v147h178v-156l-135 -275h-106z" />
<glyph unicode="-" horiz-adv-x="505" d="M32 538v139h441v-139h-441z" />
<glyph unicode="." horiz-adv-x="493" d="M145 0v182h177v-182h-177z" />
<glyph unicode="/" horiz-adv-x="765" d="M14 -125l548 1423h150l-546 -1423h-152z" />
<glyph unicode="0" horiz-adv-x="1039" d="M102 497v311q0 249 110.5 384t305.5 135q197 0 307.5 -135t110.5 -384v-311q0 -250 -109.5 -384t-306.5 -134q-196 0 -307 134.5t-111 383.5zM279 461q0 -170 61.5 -256.5t179.5 -86.5q239 0 239 343v385q0 170 -61.5 256t-179.5 86q-239 0 -239 -342v-385z" />
<glyph unicode="1" d="M167 1134v128l446 48v-1310h-177v1138z" />
<glyph unicode="2" d="M87 929q-4 173 115 286t322 113q175 0 280.5 -101.5t105.5 -263.5q0 -102 -59.5 -207.5t-181.5 -237.5l-345 -375l2 -4h630v-140h-850v122l430 477q115 128 156 203t41 156q0 100 -58 166t-151 66q-265 0 -265 -266h-170z" />
<glyph unicode="3" d="M90 338l3 6h169q0 -105 63.5 -165.5t174.5 -60.5q114 0 177 61.5t63 180.5q0 122 -57 179t-179 57h-155l-1 140h155q115 0 165.5 56.5t50.5 166.5q0 113 -55.5 171.5t-164.5 58.5q-104 0 -166.5 -61t-62.5 -162h-170l-2 6q-4 151 109 253.5t293 102.5q185 0 291 -97 t106 -275q0 -86 -51 -165t-145 -121q216 -70 216 -307q0 -177 -115.5 -280.5t-301.5 -103.5q-184 0 -299 98t-111 261z" />
<glyph unicode="4" d="M50 302v100l577 908h188v-869h180v-139h-180v-302h-177v302h-588zM239 441h399v615l-5 1l-17 -45z" />
<glyph unicode="5" d="M141 337l2 6h160q0 -105 61 -165t161 -60q112 0 174 78.5t62 217.5q0 129 -63.5 208.5t-172.5 79.5q-102 0 -149.5 -30t-70.5 -98l-146 16l75 719h656v-157h-506l-43 -368q97 69 210 73q181 1 285 -118t104 -323q0 -203 -107 -320t-307 -117q-174 0 -281.5 93.5 t-103.5 264.5z" />
<glyph unicode="6" d="M118 762q0 251 138.5 408t350.5 157q143 0 243 -54l-38 -136q-97 51 -205 51q-141 0 -227 -111.5t-86 -294.5v-21q123 107 292 107q174 0 279.5 -120t105.5 -309q0 -206 -111.5 -333t-296.5 -127q-198 0 -321 142t-123 391v250h-1zM294 495q0 -178 74.5 -277.5 t193.5 -99.5q107 0 169 90t62 231h1q0 133 -66.5 215t-180.5 82q-177 0 -253 -135v-106z" />
<glyph unicode="7" d="M69 1171v139h887v-139q-119 -142 -196 -260.5t-125.5 -242.5t-74 -241t-45.5 -286l-15 -141h-177l15 141q37 305 143.5 548.5t300.5 481.5h-713z" />
<glyph unicode="8" d="M92 353q0 109 66 193.5t180 125.5q-99 39 -154 115.5t-55 178.5q0 172 104.5 266.5t284.5 94.5q176 0 283.5 -95t107.5 -266q0 -101 -56.5 -178t-156.5 -116q115 -41 182 -125.5t67 -193.5q0 -179 -116 -276.5t-310 -97.5q-197 0 -312 97t-115 277zM269 356 q0 -111 68 -174.5t182 -63.5q113 0 181.5 64t68.5 174q0 108 -71 177.5t-180 69.5q-111 0 -180 -69t-69 -178zM306 963q0 -100 58.5 -160.5t154.5 -60.5q95 0 154 60.5t59 160.5q0 97 -61 161t-153 64q-95 0 -153.5 -62t-58.5 -163z" />
<glyph unicode="9" d="M74 878q0 196 116.5 322.5t289.5 126.5q210 0 326 -129t116 -377v-312q0 -252 -126 -391t-337 -139q-156 0 -268 53l27 136q93 -50 242 -50q133 0 209 99.5t76 289.5v60q-89 -130 -258 -130q-192 0 -302.5 117.5t-110.5 323.5zM252 878q0 -137 63.5 -219.5t172.5 -82.5 q95 0 160.5 40.5t96.5 109.5v113q0 172 -65.5 260.5t-193.5 88.5q-99 0 -166.5 -87.5t-67.5 -222.5z" />
<glyph unicode=":" horiz-adv-x="465" d="M131 0v164h159v-164h-159zM131 788v164h159v-164h-159z" />
<glyph unicode=";" horiz-adv-x="473" d="M85 -258l56 255v133h161v-141l-122 -247h-95zM132 763v164h159v-164h-159z" />
<glyph unicode="&#x3c;" horiz-adv-x="936" d="M64 428v134l734 340v-180l-503 -210l-76 -16v-6l76 -17l503 -205v-181z" />
<glyph unicode="=" d="M137 407v148h750v-148h-750zM137 781v148h750v-148h-750z" />
<glyph unicode="&#x3e;" horiz-adv-x="965" d="M122 87v176l539 215l76 15v5l-76 18l-539 211v175l771 -340v-134z" />
<glyph unicode="?" horiz-adv-x="1142" d="M206 1009q-3 144 100.5 231.5t268.5 87.5q178 0 275.5 -90t97.5 -253q0 -108 -57.5 -201.5t-173.5 -206.5q-47 -47 -58 -83.5t-11 -124.5l-178 -1q1 130 22.5 180.5t113.5 133.5q58 69 78 94t46.5 65.5t33.5 70t7 69.5q0 95 -51 146.5t-145 51.5q-86 0 -141.5 -45.5 t-55.5 -130.5h-169zM469 -1v187h185v-187h-185z" />
<glyph unicode="@" horiz-adv-x="1650" d="M103 385q11 255 107.5 448.5t267 301.5t391.5 108h-1q341 0 523 -223t167 -613q-4 -99 -31 -183t-76.5 -149t-126.5 -102t-174 -37q-66 0 -113 37t-68 106q-89 -143 -261 -143q-113 0 -174.5 108.5t-45.5 284.5q20 233 123 374t252 141q90 0 146.5 -21t130.5 -74l-3 -4h5 l-46 -527q-14 -173 93 -173q110 0 177 100t74 262q14 350 -131 539t-445 189q-183 0 -322.5 -94t-218 -263.5t-86.5 -392.5q-16 -342 135 -537t434 -195q79 0 160 19t137 51l35 -96q-60 -37 -152 -58.5t-184 -21.5q-343 0 -529.5 223.5t-169.5 614.5zM646 328 q-20 -261 115 -261q122 0 194 101q-1 22 3 50l42 485q-55 23 -104 23l-1 -1q-111 0 -171 -97t-78 -300z" />
<glyph unicode="A" horiz-adv-x="1193" d="M18 0l507 1310h152l498 -1310h-180l-123 338h-549l-124 -338h-181zM378 486h441l-216 597h-5z" />
<glyph unicode="B" horiz-adv-x="1178" d="M162 0v1310h428q210 0 323.5 -89.5t113.5 -264.5q0 -87 -55 -156t-148 -102q118 -26 186.5 -115.5t68.5 -212.5q0 -179 -114.5 -274.5t-318.5 -95.5h-484zM339 139h307q122 0 189 59.5t67 169.5q0 118 -57.5 182.5t-172.5 64.5h-333v-476zM339 753h287q101 0 162.5 55 t61.5 151q0 212 -260 212h-251v-418z" />
<glyph unicode="C" horiz-adv-x="1167" d="M105 536v233q0 244 140 401t362 157q223 1 355 -117q128 -114 128 -303v-12l-2 -5h-170q0 140 -81.5 219t-228.5 79q-146 0 -235 -118t-89 -299v-235q0 -183 89 -300.5t235 -117.5q148 0 229 78.5t81 220.5h169l2 -5v-11q0 -181 -130 -299q-134 -122 -352 -123 q-222 0 -362 156.5t-140 400.5z" />
<glyph unicode="D" horiz-adv-x="1214" d="M162 0v1310h402q258 0 413.5 -156.5t155.5 -409.5v-179q0 -253 -155.5 -409t-413.5 -156h-402zM339 139h225q181 0 286.5 117.5t105.5 308.5v181q0 190 -106 307.5t-286 117.5h-225v-1032z" />
<glyph unicode="E" horiz-adv-x="1077" d="M162 0v1310h860v-139h-683v-424h601v-139h-601v-469h692v-139h-869z" />
<glyph unicode="F" horiz-adv-x="1074" d="M162 0v1310h867v-139h-690v-452h598v-139h-598v-580h-177z" />
<glyph unicode="G" horiz-adv-x="1256" d="M108 519v270q0 240 142.5 389.5t369.5 149.5q223 0 353.5 -109t132.5 -288l-2 -5h-169q-9 119 -89.5 190.5t-225.5 71.5q-150 0 -242 -111.5t-92 -286.5v-272q0 -175 102 -287.5t262 -112.5q105 0 178 27.5t106 69.5v298h-287v139h465v-479q-53 -81 -172 -137t-290 -56 q-237 0 -389.5 150.5t-152.5 388.5z" />
<glyph unicode="H" horiz-adv-x="1315" d="M162 0v1310h177v-592h637v592h177v-1310h-177v579h-637v-579h-177z" />
<glyph unicode="I" horiz-adv-x="521" d="M171 0v1310h178v-1310h-178z" />
<glyph unicode="J" horiz-adv-x="1017" d="M59 353l2 6h170q0 -120 61 -180.5t175 -60.5q99 0 160.5 66t61.5 177v947h178v-947q0 -175 -110 -278.5t-290 -103.5q-193 0 -303 97q-105 94 -105 264v13z" />
<glyph unicode="K" horiz-adv-x="1185" d="M162 0v1310h177v-579h137l469 579h196l3 -4l-509 -629l546 -672l-3 -5h-211l-475 591h-153v-591h-177z" />
<glyph unicode="L" horiz-adv-x="995" d="M162 0v1310h177v-1171h620v-139h-797z" />
<glyph unicode="M" horiz-adv-x="1619" d="M162 0v1310h227l417 -1064h6l417 1064h227v-1310h-177v518l18 533l-5 1l-424 -1052h-118l-423 1049h-5l17 -531v-518h-177z" />
<glyph unicode="N" horiz-adv-x="1315" d="M162 0v1310h177l631 -1011l6 2v1009h177v-1310h-177l-631 1013l-6 -1v-1012h-177z" />
<glyph unicode="O" horiz-adv-x="1256" d="M102 536v233q0 243 143.5 400.5t372.5 157.5q238 0 387 -157t149 -401v-233q0 -243 -149 -400t-387 -157q-229 0 -372.5 157t-143.5 400zM279 536q0 -184 92.5 -298t246.5 -114q164 0 261.5 113.5t97.5 298.5v235q0 183 -98 296.5t-261 113.5q-153 0 -246 -114t-93 -296 v-235z" />
<glyph unicode="P" horiz-adv-x="1181" d="M162 0v1310h501q208 0 325 -106.5t117 -285.5q0 -182 -116.5 -287t-325.5 -105h-324v-526h-177zM339 664h324q130 0 197.5 69t67.5 183t-68 184.5t-197 70.5h-324v-507z" />
<glyph unicode="Q" horiz-adv-x="1256" d="M102 515v233q0 243 143.5 400.5t372.5 157.5q157 0 279.5 -72t189.5 -199t67 -287v-232q0 -128 -44.5 -237t-126.5 -185l222 -210l-121 -116l-249 231q-102 -41 -217 -41q-229 0 -372.5 157t-143.5 400zM279 516q0 -184 92.5 -298t246.5 -114q164 0 261.5 113.5 t97.5 298.5v235q0 183 -98 296.5t-261 113.5q-153 0 -246 -114t-93 -296v-235z" />
<glyph unicode="R" horiz-adv-x="1221" d="M162 0v1310h474q216 0 329 -95t113 -278q0 -204 -206 -294q203 -66 203 -309v-123q0 -134 60 -189v-22h-183q-55 49 -55 212v120q0 107 -62 171.5t-166 64.5h-330v-568h-177zM339 707h279q150 0 216.5 56.5t66.5 175.5q0 232 -265 232h-297v-464z" />
<glyph unicode="S" horiz-adv-x="1149" d="M92 370l2 5h169q0 -123 89.5 -190t232.5 -67q135 0 213 56.5t78 153.5q0 93 -69.5 153t-237.5 100q-441 106 -441 388q0 155 126 256.5t325 101.5q210 0 340 -115q125 -111 125 -264v-12l-2 -6h-169q0 118 -77 188t-217 70q-131 0 -202.5 -58.5t-71.5 -157.5 q0 -86 76 -142.5t249 -100.5q423 -107 423 -399q0 -159 -129 -255t-339 -96q-133 0 -245.5 46.5t-181.5 137.5q-66 87 -66 197v10z" />
<glyph unicode="T" horiz-adv-x="1080" d="M31 1171v139h1018v-139h-421v-1171h-177v1171h-420z" />
<glyph unicode="U" horiz-adv-x="1247" d="M132 420v888h178v-888q0 -146 82.5 -224t224.5 -78q150 0 237.5 78t87.5 224v888h179v-888q0 -211 -136.5 -326t-367.5 -115q-221 0 -353 115.5t-132 325.5z" />
<glyph unicode="V" horiz-adv-x="1166" d="M20 1310h192l339 -984l30 -104h5l30 104l338 984h192l-487 -1310h-152z" />
<glyph unicode="W" horiz-adv-x="1628" d="M49 1310h176l200 -856l24 -164l6 -1l35 165l240 856h157l242 -856l36 -169h5l26 169l195 856h178l-316 -1310h-159l-258 909l-23 118h-6l-22 -118l-263 -909h-158z" />
<glyph unicode="X" horiz-adv-x="1166" d="M59 0l425 661l-416 649h213l304 -511l306 511h214l-416 -649l425 -661h-211l-314 520l-315 -520h-215z" />
<glyph unicode="Y" horiz-adv-x="1125" d="M18 1310h203l342 -666l342 666h202l-460 -849v-461h-176v473z" />
<glyph unicode="Z" horiz-adv-x="1103" d="M87 0v131l701 1040h-691v139h893v-126l-703 -1045h733v-139h-933z" />
<glyph unicode="[" horiz-adv-x="698" d="M190 -281v1779h346v-140h-169v-1499h169v-140h-346z" />
<glyph unicode="\" horiz-adv-x="761" d="M35 1298h168l547 -1423h-168z" />
<glyph unicode="]" horiz-adv-x="699" d="M162 -141h170v1499h-170v140h347v-1779h-347v140z" />
<glyph unicode="^" horiz-adv-x="770" d="M55 729l269 654h121l268 -654h-163l-149 377l-15 63h-5l-15 -63l-146 -377h-165z" />
<glyph unicode="_" horiz-adv-x="838" d="M4 -15h830v-139h-830v139z" />
<glyph unicode="`" horiz-adv-x="577" d="M74 1445l3 5h207l157 -239h-142z" />
<glyph unicode="a" horiz-adv-x="1013" d="M94 272q0 139 112 218t308 79h192v96q0 86 -52.5 135.5t-146.5 49.5q-85 0 -139 -42.5t-54 -105.5h-169l-2 5v10q1 105 103 187q108 86 271 86q169 0 268 -85.5t99 -241.5v-469q0 -113 25 -196h-183q-19 93 -20 146q-52 -74 -131.5 -119.5t-168.5 -45.5q-152 0 -232 77 t-80 216zM272 268q0 -66 41 -103t119 -37q94 0 172.5 48.5t102.5 113.5v159h-198q-106 0 -171 -52.5t-65 -128.5h-1z" />
<glyph unicode="b" horiz-adv-x="1048" d="M129 -2v1404h177v-545q96 133 273 133q179 0 280 -142t101 -381v-19q0 -214 -101.5 -341.5t-277.5 -127.5q-191 0 -286 148l-21 -129h-145zM304 276q73 -153 231 -153q123 0 185.5 86.5t62.5 238.5l-2 19q0 174 -63 276.5t-186 102.5q-156 0 -228 -148v-422z" />
<glyph unicode="c" horiz-adv-x="978" d="M87 466v38q0 216 115.5 351t322.5 135q170 0 279 -100q105 -96 105 -239v-10l-2 -5h-160q0 90 -63 152t-159 62q-91 0 -150.5 -47t-84 -122t-24.5 -177v-38q0 -77 14 -139t44 -109.5t81 -73.5t120 -26q90 0 156 55t66 133h159l2 -6v-10q0 -121 -111 -214 q-116 -97 -272 -97q-208 0 -323 135t-115 352z" />
<glyph unicode="d" horiz-adv-x="1048" d="M87 467q0 239 101 381t281 142q170 0 264 -124v536h178v-1404h-145l-21 120q-97 -139 -277 -139q-178 0 -279 127.5t-101 341.5zM266 448q0 -153 61.5 -239t185.5 -86q150 0 222 137v454q-74 132 -220 132q-125 0 -187 -101.5t-62 -277.5v-19z" />
<glyph unicode="e" horiz-adv-x="975" d="M88 466v40q0 205 122.5 344.5t294.5 139.5q194 0 296.5 -116.5t102.5 -319.5v-111h-632l-3 -4q3 -144 72.5 -232.5t190.5 -88.5q170 0 276 96l70 -115h-1q-122 -120 -345 -120q-203 0 -323.5 134t-120.5 353zM275 587l2 -5h449v23q0 110 -57 177.5t-164 67.5 q-88 0 -151.5 -74t-78.5 -189z" />
<glyph unicode="f" horiz-adv-x="636" d="M49 842v132h153v123q0 156 80.5 241t227.5 85q51 0 132 -19l-22 -135q-38 9 -87 9q-153 0 -153 -181v-123h202v-132h-202v-842h-178v842h-153z" />
<glyph unicode="g" horiz-adv-x="1048" d="M90 406v19q0 239 103 381t283 142q183 0 280 -145l22 127h141v-979q0 -188 -108.5 -288t-314.5 -100q-71 0 -152 19.5t-143 52.5l45 138q48 -27 115.5 -44t132.5 -17q129 0 188.5 58t59.5 181v110q-97 -124 -268 -124q-178 0 -281 128.5t-103 340.5zM267 406 q0 -151 63.5 -238t187.5 -87q152 0 225 140v448q-76 135 -223 135q-124 0 -188.5 -102.5t-64.5 -276.5v-19z" />
<glyph unicode="h" horiz-adv-x="1048" d="M129 0v1404h177v-561q105 149 286 149q160 0 245 -95t85 -287v-610h-178v612q0 121 -51 178.5t-155 57.5q-148 0 -232 -129v-719h-177z" />
<glyph unicode="i" horiz-adv-x="464" d="M143 0v974h177v-974h-177zM143 1223v181h177v-181h-177z" />
<glyph unicode="j" horiz-adv-x="477" d="M-58 -421l12 140q27 -11 74 -11q128 0 128 168v1054h179v-1054q0 -150 -76.5 -231.5t-215.5 -81.5q-50 0 -101 16zM150 1183v177h178v-177h-178z" />
<glyph unicode="k" horiz-adv-x="945" d="M130 0v1404h177v-814h113l267 384h212l-333 -443l381 -531h-209l-316 449h-115v-449h-177z" />
<glyph unicode="l" horiz-adv-x="464" d="M143 0v1404h177v-1404h-177z" />
<glyph unicode="m" horiz-adv-x="1611" d="M130 0v974h158l13 -128q100 146 291 146q202 0 272 -180q101 180 298 180q153 0 237 -103.5t84 -306.5v-582h-177v584q0 141 -48 202.5t-149 61.5q-90 0 -146.5 -61.5t-66.5 -160.5v-626h-179v584q0 136 -49.5 200t-147.5 64q-154 0 -214 -127v-721h-176z" />
<glyph unicode="n" horiz-adv-x="1048" d="M129 0v974h158l13 -145q101 163 289 163q160 0 245 -93.5t85 -283.5v-615h-177v611q0 127 -50 182t-156 55q-76 0 -135 -36t-95 -102v-710h-177z" />
<glyph unicode="o" horiz-adv-x="1048" d="M87 474v20q0 220 118 358t317 138q201 0 319 -137.5t118 -358.5v-20q0 -222 -117.5 -358.5t-317.5 -136.5q-201 0 -319 137t-118 358zM265 474q0 -162 66.5 -259t192.5 -97q124 0 191 97.5t67 258.5v20q0 159 -67.5 257.5t-192.5 98.5q-124 0 -190.5 -98.5t-66.5 -257.5 v-20z" />
<glyph unicode="p" horiz-adv-x="1048" d="M129 -416v1348h136l28 -126q97 144 284 144q180 0 281 -141.5t101 -381.5v-19q0 -213 -101.5 -340.5t-277.5 -127.5q-178 0 -274 120v-476h-177zM306 206q70 -128 220 -128q123 0 189 90t66 240v19q0 172 -66.5 275.5t-190.5 103.5q-147 0 -218 -129v-471z" />
<glyph unicode="q" horiz-adv-x="1048" d="M88 408v19q0 239 101 381t281 142q175 0 271 -132l26 114h135v-1348h-177v466q-94 -110 -257 -110q-177 0 -278.5 127.5t-101.5 340.5zM266 408q0 -153 62 -241.5t185 -88.5q136 0 212 123v492q-77 118 -210 118q-123 0 -186 -104t-63 -280v-19z" />
<glyph unicode="r" horiz-adv-x="632" d="M129 -1v974h158l17 -142q89 161 242 161q36 0 68 -10l-24 -166l-91 6q-137 0 -193 -127v-696h-177z" />
<glyph unicode="s" horiz-adv-x="964" d="M98 294l2 5h169q5 -90 67.5 -135.5t156.5 -45.5l-2 2q94 0 148 37.5t54 100.5q0 61 -46 97.5t-167 64.5q-184 40 -270.5 106.5t-86.5 179.5q0 121 102 203.5t262 82.5q167 0 269 -86q97 -82 97 -203v-12l-2 -5h-169q0 67 -54.5 116t-140.5 49q-91 0 -139 -39.5 t-48 -101.5q0 -60 42 -92t165 -58q188 -41 276 -109.5t88 -181.5q0 -130 -104.5 -210t-274.5 -80q-182 0 -290 92q-104 88 -104 212v11z" />
<glyph unicode="t" horiz-adv-x="637" d="M31 840v132h154v235h179v-235h184v-132h-184v-591q0 -124 103 -124q32 0 66 12l23 -121q-48 -37 -135 -37q-112 0 -174 67t-62 203v591h-154z" />
<glyph unicode="u" horiz-adv-x="1048" d="M125 398v574h177v-576q0 -153 44.5 -213t144.5 -60q183 0 250 147v702h177v-974h-159l-12 144q-96 -163 -284 -163q-164 0 -251 103.5t-87 315.5z" />
<glyph unicode="v" horiz-adv-x="927" d="M41 974h182l231 -687l15 -68h5l17 68l225 687h180l-358 -974h-134z" />
<glyph unicode="w" horiz-adv-x="1395" d="M41 974h176l161 -619l21 -118h5l25 118l195 619h142l195 -619l28 -132h6l26 132l153 619h176l-283 -974h-143l-188 593l-40 166l-6 -1l-38 -165l-186 -593h-143z" />
<glyph unicode="x" horiz-adv-x="927" d="M41 0l325 492l-316 482h205l204 -359l207 359h207l-316 -482l325 -492h-203l-216 368l-216 -368h-206z" />
<glyph unicode="y" horiz-adv-x="927" d="M23 930h198l207 -613l31 -122h6l239 735h197l-409 -1123q-93 -244 -293 -244q-38 0 -105 14l18 140l21 -1q50 -4 58 -4q52 0 87.5 44t64.5 118l42 102z" />
<glyph unicode="z" horiz-adv-x="927" d="M85 0v124l526 709h-520v141h737v-121l-532 -714h563v-139h-774z" />
<glyph unicode="{" horiz-adv-x="834" d="M117 489v132q94 0 141 54.5t47 157.5v186q0 161 76 265.5t247 152.5l36 -105q-182 -59 -182 -313v-186q0 -197 -153 -279q153 -82 153 -279v-184q0 -124 43 -202.5t139 -109.5l-36 -107q-171 49 -247 154t-76 265v184q0 103 -47 158.5t-141 55.5z" />
<glyph unicode="|" horiz-adv-x="577" d="M217 -243v1553h143v-1553h-143z" />
<glyph unicode="}" horiz-adv-x="835" d="M170 -221q183 60 183 312v184q0 205 165 279q-165 73 -165 279v186q0 253 -183 313l37 105q169 -48 246 -153t77 -265v-186q0 -212 188 -212v-132q-188 0 -188 -214v-184q0 -160 -77 -265t-246 -154z" />
<glyph unicode="~" horiz-adv-x="1252" d="M115 467q0 124 77.5 210t195.5 86q77 0 144 -30t147 -95q53 -47 95.5 -67.5t89.5 -20.5q59 0 103 51.5t44 120.5l127 -16q0 -125 -79 -215t-195 -90q-81 0 -146.5 29t-143.5 97q-105 86 -186 86q-60 0 -103 -47.5t-43 -114.5z" />
<glyph unicode="&#xa2;" horiz-adv-x="1008" d="M94 450v31q0 193 90.5 320.5t250.5 156.5v204h166v-201q136 -21 222 -115.5t91 -230.5h-157q-7 95 -71 155.5t-159 60.5q-128 0 -197 -91.5t-69 -264.5v-31l-1 1q0 -169 69.5 -260t196.5 -91q91 0 157.5 54.5t73.5 134.5h157q-5 -113 -94 -203.5t-219 -113.5v-210h-166 v211q-162 30 -251.5 157t-89.5 326z" />
<glyph unicode="&#xa3;" horiz-adv-x="1071" d="M82 560v141h144l-8 234q0 179 109.5 286t290.5 107q171 0 271 -94.5t100 -255.5h-172q0 98 -57 153t-157 55q-95 0 -153 -69t-58 -182l8 -234h287v-141l-283 -1l7 -198q0 -137 -55 -221h659l-1 -141h-928v141h69q36 8 58.5 67t24.5 147v7l-8 199h-148z" />
<glyph unicode="&#xa5;" horiz-adv-x="1116" d="M28 1310h198l327 -606l327 606h197l-376 -648h281v-112h-346v-149h346v-111h-346v-290h-173v290h-341v111h341v149h-341v112h282z" />
<glyph unicode="&#xa8;" horiz-adv-x="770" d="M92 1360q0 43 25 69.5t73 26.5t73.5 -26.5t25.5 -69.5q0 -42 -25.5 -68t-73.5 -26t-73 26t-25 68zM479 1359q0 43 25 69.5t73 26.5t73.5 -27t25.5 -69q0 -43 -25.5 -69t-73.5 -26t-73 26t-25 69z" />
<glyph unicode="&#xa9;" horiz-adv-x="1444" d="M79 654q0 187 85 341.5t231.5 242.5t322.5 88t322 -88t231 -242.5t85 -341.5t-85 -342.5t-231.5 -244t-321.5 -88.5q-131 0 -249.5 52.5t-204 142t-135.5 215t-50 265.5zM188 654q0 -157 70.5 -287t192 -204.5t267.5 -74.5t267.5 74.5t192 204.5t70.5 287 q0 156 -70.5 285.5t-192 203.5t-267.5 74t-267.5 -74t-192 -203.5t-70.5 -285.5zM392 600v107q0 158 85 253t229 95q143 0 221.5 -71t75.5 -205l-2 -5h-132q0 85 -40 124.5t-123 39.5q-84 0 -130.5 -62.5t-46.5 -167.5v-108q0 -107 46.5 -169t130.5 -62t123.5 39t39.5 126 h131l2 -5q3 -135 -74.5 -206t-221.5 -71t-229 95t-85 253z" />
<glyph unicode="&#xab;" horiz-adv-x="865" d="M82 500v17l266 350h127l-233 -359l233 -357h-127zM412 500v17l266 350h127l-233 -359l233 -357h-127z" />
<glyph unicode="&#xad;" horiz-adv-x="505" d="M32 538v139h441v-139h-441z" />
<glyph unicode="&#xae;" horiz-adv-x="1449" d="M81 654q0 184 84 339t233 245q150 89 322 89t321 -89q149 -90 233 -245t84 -339q0 -180 -81.5 -333.5t-229.5 -247.5t-327 -94q-176 0 -325 92t-232 249v-1q-82 157 -82 335zM185 654q0 -155 71.5 -286.5t195.5 -207.5q122 -75 267 -75t269 75.5t195 207.5q71 131 71 285 t-70.5 283.5t-195.5 205.5q-122 75 -268 75t-269 -74t-195 -206v1q-71 -129 -71 -284zM461 281v764h248q140 0 215 -59t75 -171q0 -110 -115 -169q110 -46 111 -184v-55q0 -80 15 -111v-15h-131q-10 26 -12.5 119t-2.5 95q-13 87 -118 91h-158v-305h-127zM588 701h140 q66 2 105 32t39 79q0 66 -35 93t-125 27h-124v-231z" />
<glyph unicode="&#xb4;" horiz-adv-x="578" d="M111 1240l173 265h202l-241 -265h-134z" />
<glyph unicode="&#xb8;" horiz-adv-x="456" d="M104 -340q72 0 111 23.5t39 65.5t-30 60.5t-116 26.5l29 120l120 -2l-11 -46q137 -24 137 -155q0 -88 -72 -138.5t-200 -50.5z" />
<glyph unicode="&#xbb;" horiz-adv-x="864" d="M83 152l232 358l-232 359h128l265 -350v-17l-265 -350h-128zM432 152l232 358l-232 359h128l265 -350v-17l-265 -350h-128z" />
<glyph unicode="&#x2c6;" horiz-adv-x="868" d="M152 1252v11l222 245h100l223 -247v-9h-138l-135 153l-134 -153h-138z" />
<glyph unicode="&#x2da;" horiz-adv-x="617" d="M109 1388q0 78 55.5 132.5t137.5 54.5q83 0 138.5 -54.5t55.5 -132.5q0 -79 -55.5 -131.5t-138.5 -52.5t-138 52.5t-55 131.5zM198 1388q0 -44 30 -74t74 -30t74.5 30t30.5 74q0 45 -30 75.5t-75 30.5q-44 0 -74 -31t-30 -75z" />
<glyph unicode="&#x2dc;" horiz-adv-x="869" d="M110 1247q0 97 54.5 160t137.5 63q32 0 57 -9t69 -35q43 -26 66 -34.5t51 -8.5q38 0 64 30t26 72l111 -11q0 -96 -55 -157t-138 -61q-38 0 -64.5 9t-70.5 37q-42 27 -61 33.5t-47 6.5q-37 0 -63 -29t-26 -72z" />
<glyph unicode="&#x2000;" horiz-adv-x="787" />
<glyph unicode="&#x2001;" horiz-adv-x="1575" />
<glyph unicode="&#x2002;" horiz-adv-x="787" />
<glyph unicode="&#x2003;" horiz-adv-x="1575" />
<glyph unicode="&#x2004;" horiz-adv-x="525" />
<glyph unicode="&#x2005;" horiz-adv-x="393" />
<glyph unicode="&#x2006;" horiz-adv-x="262" />
<glyph unicode="&#x2007;" horiz-adv-x="262" />
<glyph unicode="&#x2008;" horiz-adv-x="196" />
<glyph unicode="&#x2009;" horiz-adv-x="315" />
<glyph unicode="&#x200a;" horiz-adv-x="87" />
<glyph unicode="&#x2010;" horiz-adv-x="505" d="M32 538v139h441v-139h-441z" />
<glyph unicode="&#x2011;" horiz-adv-x="505" d="M32 538v139h441v-139h-441z" />
<glyph unicode="&#x2012;" horiz-adv-x="505" d="M32 538v139h441v-139h-441z" />
<glyph unicode="&#x2013;" horiz-adv-x="1274" d="M143 648v126h880v-126h-880z" />
<glyph unicode="&#x2014;" horiz-adv-x="1494" d="M145 648v126h1083v-126h-1083z" />
<glyph unicode="&#x2018;" horiz-adv-x="585" d="M177 918v166l144 320h87l-54 -326v-160h-177z" />
<glyph unicode="&#x2019;" horiz-adv-x="585" d="M177 919l54 309v176h177v-174l-144 -311h-87z" />
<glyph unicode="&#x201a;" horiz-adv-x="366" d="M32 -217q84 115 85 245v107h167v-90q0 -90 -44 -181t-113 -147z" />
<glyph unicode="&#x201c;" horiz-adv-x="881" d="M177 918v166l144 320h87l-54 -326v-160h-177zM473 918v166l144 320h87l-54 -326v-160h-177z" />
<glyph unicode="&#x201d;" horiz-adv-x="888" d="M177 919l54 309v176h177v-174l-144 -311h-87zM480 919l54 309v176h177v-174l-144 -311h-87z" />
<glyph unicode="&#x201e;" horiz-adv-x="635" d="M32 -236q84 125 85 261v166h167v-147q0 -96 -44 -190.5t-113 -154.5zM299 -236q83 123 84 261v166h168v-147q0 -97 -43 -191t-115 -154z" />
<glyph unicode="&#x2026;" horiz-adv-x="1242" d="M131 0v164h159v-164h-159zM530 0v164h159v-164h-159zM908 0v164h159v-164h-159z" />
<glyph unicode="&#x202f;" horiz-adv-x="315" />
<glyph unicode="&#x2039;" horiz-adv-x="553" d="M97 502v17l266 350h127l-233 -359l233 -357h-127z" />
<glyph unicode="&#x203a;" horiz-adv-x="553" d="M80 152l232 358l-232 359h128l265 -350v-17l-265 -350h-128z" />
<glyph unicode="&#x205f;" horiz-adv-x="393" />
<glyph unicode="&#x20ac;" horiz-adv-x="1035" d="M88 485v112h160v123h-160v112h160q9 236 136 365t347 129q87 0 217 -27l-18 -146q-102 31 -198 31q-148 0 -227.5 -90t-85.5 -262h345v-112h-345v-123h345v-112h-345q3 -177 83.5 -271t230.5 -94q101 0 197 31l18 -144q-102 -27 -215 -27q-225 0 -352.5 132t-132.5 373 h-160z" />
<glyph unicode="&#x2122;" horiz-adv-x="1153" d="M93 1329v73h347v-73h-132v-410h-82v410h-133zM511 919v483h101l130 -359l129 359h101v-483h-81v355l-126 -355h-47l-126 354v-354h-81z" />
<glyph unicode="&#x25fc;" horiz-adv-x="975" d="M0 0v975h975v-975h-975z" />
</font>
</defs>
</svg>
